<!-- Generated by IcoMoon.io -->
<svg version="1.1" xmlns="http://www.w3.org/2000/svg" width="995" height="1024" viewBox="0 0 995 1024">
<title></title>
<g id="icomoon-ignore">
</g>
<path fill="none" stroke-linejoin="miter" stroke-linecap="butt" stroke-miterlimit="4" stroke-width="28.8451" stroke="#000" d="M918.355 833.093l-415.585-793.239-415.571 793.239h831.156z"></path>
<path fill="none" stroke-linejoin="miter" stroke-linecap="butt" stroke-miterlimit="4" stroke-width="28.8451" stroke="#000" d="M497.577 14.423c262.81 2.319 474.963 215.905 474.963 479.041 0 264.577-214.482 479.059-479.059 479.059s-479.059-214.482-479.059-479.059c0-0.004 0-0.008 0-0.012v0.001c1.169-264.814 216.112-479.035 481.088-479.035 0.727 0 1.453 0.002 2.179 0.005h-0.113z"></path>
<path fill="#000" d="M502.77 792.98c28.278 0.229 51.113 23.205 51.113 51.516 0 28.452-23.065 51.517-51.517 51.517s-51.516-23.064-51.517-51.516v0c0.123-28.479 23.237-51.518 51.733-51.518 0.066 0 0.132 0 0.198 0h-0.010z"></path>
<path fill="#000" d="M971.268 844.396c0 28.755-23.31 52.065-52.065 52.065s-52.065-23.31-52.065-52.065c0-28.755 23.31-52.065 52.065-52.065s52.065 23.31 52.065 52.065z"></path>
<path fill="#000" d="M87.155 792.98c28.278 0.229 51.113 23.205 51.113 51.516 0 28.452-23.065 51.517-51.517 51.517s-51.516-23.064-51.517-51.516v0c0.123-28.479 23.237-51.518 51.733-51.518 0.066 0 0.132 0 0.198 0h-0.010z"></path>
</svg>
