<svg width="0" height="0" class="hidden">
  <symbol xmlns="http://www.w3.org/2000/svg" viewBox="0 0 78.969 91" id="product">
    <path d="M21.756 38.11a1.579 1.579 0 01-1.109-.45l-3.1-3.08a1.548 1.548 0 010-2.2 1.574 1.574 0 012.219 0l1.989 1.97 5.086-5.05a1.574 1.574 0 012.219 0 1.546 1.546 0 010 2.2l-6.2 6.16a1.589 1.589 0 01-1.104.45zm32.555-3.07H35.637a1.56 1.56 0 110-3.12h18.674a1.56 1.56 0 110 3.12zM21.756 64.79a1.579 1.579 0 01-1.109-.45l-3.1-3.08a1.548 1.548 0 010-2.2 1.574 1.574 0 012.219 0l1.989 1.97 5.086-5.05a1.574 1.574 0 012.219 0 1.546 1.546 0 010 2.2l-6.2 6.16a1.589 1.589 0 01-1.104.45zm32.555-3.07H35.637a1.56 1.56 0 110-3.12h18.674a1.56 1.56 0 110 3.12zM21.756 78.14a1.589 1.589 0 01-1.109-.46l-3.1-3.08a1.548 1.548 0 010-2.2 1.574 1.574 0 012.219 0l1.989 1.97 5.086-5.05a1.574 1.574 0 012.219 0 1.557 1.557 0 010 2.21l-6.2 6.15a1.6 1.6 0 01-1.104.46zm32.555-3.08H35.637a1.56 1.56 0 110-3.12h18.674a1.56 1.56 0 110 3.12zM21.756 51.45a1.579 1.579 0 01-1.109-.45l-3.1-3.08a1.56 1.56 0 010-2.21 1.593 1.593 0 012.219 0l1.989 1.98 5.086-5.05a1.574 1.574 0 012.219 0 1.545 1.545 0 010 2.2L22.86 51a1.589 1.589 0 01-1.104.45zm32.555-3.07H35.637a1.56 1.56 0 110-3.12h18.674a1.56 1.56 0 110 3.12zM76.888 11.4H58.422a6.132 6.132 0 00-6.141-5.68H46.3a5.812 5.812 0 00-11.623 0h-5.994a6.128 6.128 0 00-6.131 5.68H2.081a2.088 2.088 0 00-2.092 2.08v75.44A2.082 2.082 0 002.081 91h74.807a2.083 2.083 0 002.093-2.08V13.48a2.089 2.089 0 00-2.093-2.08zm-50.177.44a1.965 1.965 0 011.968-1.96h6.539a3.63 3.63 0 003.641-3.61v-.48a1.627 1.627 0 013.254 0v.48a3.627 3.627 0 003.63 3.61h6.539a1.966 1.966 0 011.977 1.96v4.26H26.713v-4.26zm48.085 75H4.173V15.56h18.353v2.62a2.082 2.082 0 002.092 2.08h31.731a2.082 2.082 0 002.092-2.08v-2.62h16.353v71.28zm-34.311-76.7a2 2 0 11-2.01 2 2 2 0 012.01-2z" fill="#3c3c3c" fill-rule="evenodd"></path>
  </symbol>
  <symbol xmlns="http://www.w3.org/2000/svg" viewBox="0 0 23 37" id="scroll">
    <path d="M11.5 9.757a1.659 1.659 0 101.657 1.659A1.66 1.66 0 0011.5 9.757zm-.954-9.764A11.475 11.475 0 000 11.416V25.49a11.5 11.5 0 1023 0V11.416A11.481 11.481 0 0012.455-.007m-.954 35.1a9.607 9.607 0 01-9.591-9.6V11.416a9.591 9.591 0 1119.182 0V25.49a9.607 9.607 0 01-9.592 9.601z" fill="#fff" fill-rule="evenodd"></path>
  </symbol>
  <symbol xmlns="http://www.w3.org/2000/svg" viewBox="0 0 79.969 83.03" id="design">
    <path d="M77.956-.01H66.032a2.015 2.015 0 00-2.025 2.02v4.17H15.86V2.01a2.015 2.015 0 00-2.024-2.02H2.024A2.015 2.015 0 00-.001 2.01v12.27a2.015 2.015 0 002.025 2.02h11.924a2.015 2.015 0 002.025-2.02v-4.17h22.161c-.225 4.95-12.262 28.24-19.911 41.97a2.073 2.073 0 00.45 2.47c6.862 5.85 8.549 11.59 9 14.52h-2.587a2.015 2.015 0 00-2.025 2.02v9.9a2.018 2.018 0 002.025 2.03h29.923a2.018 2.018 0 002.025-2.03v-9.9a2.015 2.015 0 00-2.025-2.02H52.42c.45-2.93 2.138-8.67 9-14.52a2.045 2.045 0 00.45-2.47c-7.65-13.73-19.686-37.13-19.911-41.97h22.048v4.17a2.015 2.015 0 002.025 2.02h11.924a2.015 2.015 0 002.025-2.02V2.01a2.015 2.015 0 00-2.025-2.02zM11.923 12.25H3.936V3.93h7.987v8.32zm28.123 32.97a2.585 2.585 0 11-2.587 2.58 2.689 2.689 0 012.587-2.58zm13.049 33.64H27.11v-5.97H53.1v5.97zm-4.612-9.91H31.609c-.45-3.26-2.137-9.78-9.224-16.42 2.7-4.95 10.8-19.8 15.636-30.83v19.92a6.439 6.439 0 00-4.5 6.18 6.525 6.525 0 108.549-6.18V21.59c4.95 11.03 12.937 25.88 15.636 30.94-7.085 6.64-8.773 13.16-9.223 16.42zm27.561-56.7h-7.987V4.04h7.987v8.21z" fill="#3c3c3c" fill-rule="evenodd"></path>
  </symbol>
  <symbol xmlns="http://www.w3.org/2000/svg" viewBox="0 0 79 76" id="dev">
    <path d="M76.921 76H2.078a2.09 2.09 0 01-2.08-2.1V12.98a2.09 2.09 0 012.08-2.1h74.843A2.09 2.09 0 0179 12.98V73.9a2.09 2.09 0 01-2.079 2.1zM4.156 71.8h70.686V15.08H4.156V71.8zm72.765-56.72H2.078a2.09 2.09 0 01-2.08-2.1V2.09a2.09 2.09 0 012.08-2.1h74.843A2.09 2.09 0 0179 2.09v10.89a2.09 2.09 0 01-2.079 2.1zm-72.765-4.2h70.686V4.19H4.156v6.69zm5.025-4.81a1.47 1.47 0 11-1.455 1.47 1.463 1.463 0 011.455-1.47zm4.35 0a1.465 1.465 0 11-1.453 1.47 1.463 1.463 0 011.453-1.47zm4.35 0a1.47 1.47 0 11-1.454 1.47 1.463 1.463 0 011.454-1.47zm11.164 43.11a1.8 1.8 0 01-1.286-.54l-5.66-5.71a1.851 1.851 0 010-2.6l5.649-5.71a1.82 1.82 0 012.573 0 1.851 1.851 0 010 2.6l-4.364 4.41 4.374 4.41a1.853 1.853 0 010 2.6 1.8 1.8 0 01-1.286.54zm20.917 0a1.8 1.8 0 01-1.286-.54 1.851 1.851 0 010-2.6l4.365-4.4-4.375-4.42a1.853 1.853 0 010-2.6 1.819 1.819 0 012.572 0l5.66 5.72a1.837 1.837 0 010 2.59l-5.651 5.71a1.8 1.8 0 01-1.285.54zm-13.069 4.24a1.767 1.767 0 01-.452-.06 1.835 1.835 0 01-1.312-2.23l4.623-18.28a1.818 1.818 0 012.212-1.33 1.842 1.842 0 011.314 2.24l-4.624 18.28a1.821 1.821 0 01-1.761 1.38z" fill="#3c3c3c" fill-rule="evenodd"></path>
  </symbol>
  <symbol xmlns="http://www.w3.org/2000/svg" viewBox="0 0 69 71" id="logo">
    <path d="M63.675 68.857l-28.815-55-28.814 55h57.629z" fill-rule="evenodd"  fill="none" stroke-width="2"></path>
    <path d="M34.5 1A33.216 33.216 0 111 34.214 33.357 33.357 0 0134.5 1z"  fill-rule="evenodd" fill="none" stroke-width="2"></path>
    <path d="M34.86 63.857a3.572 3.572 0 11-3.6 3.572 3.587 3.587 0 013.6-3.572z"></path>
    <circle cx="61.515" cy="67.422" r="3.61" ></circle>
    <path d="M6.043 63.857a3.572 3.572 0 11-3.6 3.572 3.587 3.587 0 013.6-3.572z"></path>
  </symbol>
</svg>